<svg width="91" height="35" viewBox="0 0 91 35" fill="none" xmlns="http://www.w3.org/2000/svg">
<rect x="0.464294" width="90.4464" height="35" rx="10.5814" fill="url(#paint0_linear_1_80)" fill-opacity="0.2"/>
<path fill-rule="evenodd" clip-rule="evenodd" d="M32.6096 17.5407C32.6169 17.5351 32.6243 17.5295 32.6315 17.5237C32.6315 17.5201 32.6315 17.5166 32.6315 17.513C32.6315 17.5099 32.6316 17.5067 32.6317 17.5036C32.629 17.5018 32.6263 17.5001 32.6235 17.4984C32.6178 17.4949 32.612 17.4914 32.6073 17.4867C32.1732 17.0524 31.7391 16.618 31.305 16.1836C30.8694 15.7477 30.4338 15.3118 29.9981 14.876C29.9812 14.859 29.9626 14.8436 29.9504 14.8334C29.9463 14.83 29.9429 14.8272 29.9405 14.8251L27.2522 17.5132L29.9393 20.2004C29.9451 20.1948 29.9515 20.1887 29.9583 20.1822C29.9762 20.165 29.997 20.1451 30.0173 20.1248C30.26 19.8822 30.5026 19.6396 30.7452 19.3971C31.3513 18.791 31.9575 18.1849 32.5638 17.579C32.5778 17.565 32.5937 17.5529 32.6096 17.5407ZM13.2389 12.8654L15.9366 15.5629L20.6044 10.8954L25.2773 15.5682C25.4098 15.4657 27.9372 12.9266 27.9673 12.8723L20.5944 5.5C20.4873 5.5816 13.2693 12.8111 13.2389 12.8654ZM20.6 24.1178L15.9269 19.4449C15.0209 20.3482 14.1221 21.2443 13.2349 22.1291L20.6057 29.5L27.9754 22.1307L25.2837 19.4424L24.757 19.9689L24.2391 20.4868L23.7212 21.0047L23.2033 21.5226L22.6782 22.0476L22.1603 22.5655L21.6424 23.0834C21.5906 23.1352 21.5388 23.1871 21.4871 23.239C21.3664 23.36 21.2457 23.481 21.1242 23.6011C21.0695 23.6553 21.0153 23.7101 20.961 23.7651C20.8441 23.8834 20.7265 24.0025 20.6 24.1178ZM17.8841 17.507L20.6053 20.2281L23.324 17.5095L20.6029 14.7884L17.8841 17.507ZM11.2789 14.8267L8.60382 17.5018L11.2821 20.1801L13.9569 17.5047L11.2789 14.8267Z" fill="#E25319"/>
<path d="M44.8552 18.1973H42.6755L42.6638 17.0605H44.5329C44.8532 17.0605 45.1208 17.0156 45.3357 16.9258C45.5505 16.8359 45.7126 16.7051 45.822 16.5332C45.9353 16.3613 45.9919 16.1523 45.9919 15.9062C45.9919 15.6328 45.9392 15.4102 45.8337 15.2383C45.7321 15.0664 45.572 14.9414 45.3532 14.8633C45.1345 14.7812 44.8571 14.7402 44.5212 14.7402H43.197V22H41.5857V13.4688H44.5212C45.0056 13.4688 45.4372 13.5156 45.8161 13.6094C46.1989 13.6992 46.5232 13.8398 46.7888 14.0312C47.0544 14.2227 47.2556 14.4629 47.3923 14.752C47.5329 15.041 47.6032 15.3848 47.6032 15.7832C47.6032 16.1348 47.5212 16.459 47.3571 16.7559C47.197 17.0488 46.9489 17.2871 46.613 17.4707C46.281 17.6543 45.8591 17.7598 45.3474 17.7871L44.8552 18.1973ZM44.7849 22H42.2009L42.8747 20.7344H44.7849C45.1052 20.7344 45.3689 20.6816 45.5759 20.5762C45.7868 20.4707 45.9431 20.3262 46.0446 20.1426C46.1501 19.9551 46.2029 19.7402 46.2029 19.498C46.2029 19.2324 46.156 19.002 46.0622 18.8066C45.9724 18.6113 45.8279 18.4609 45.6286 18.3555C45.4333 18.25 45.1755 18.1973 44.8552 18.1973H43.1794L43.1911 17.0605H45.3239L45.6931 17.5C46.1853 17.5039 46.5857 17.6016 46.8943 17.793C47.2068 17.9844 47.4372 18.2305 47.5857 18.5312C47.7341 18.832 47.8083 19.1562 47.8083 19.5039C47.8083 20.0508 47.6892 20.5098 47.4509 20.8809C47.2165 21.252 46.8728 21.5312 46.4196 21.7188C45.9704 21.9062 45.4255 22 44.7849 22ZM50.4863 15.6602V22H48.9336V15.6602H50.4863ZM48.8281 14.002C48.8281 13.7715 48.9062 13.5801 49.0625 13.4277C49.2226 13.2754 49.4375 13.1992 49.707 13.1992C49.9765 13.1992 50.1894 13.2754 50.3457 13.4277C50.5058 13.5801 50.5859 13.7715 50.5859 14.002C50.5859 14.2285 50.5058 14.418 50.3457 14.5703C50.1894 14.7227 49.9765 14.7988 49.707 14.7988C49.4375 14.7988 49.2226 14.7227 49.0625 14.5703C48.9062 14.418 48.8281 14.2285 48.8281 14.002ZM53.2404 17.0137V22H51.6936V15.6602H53.1467L53.2404 17.0137ZM52.9943 18.6016H52.5373C52.5412 18.1406 52.6037 17.7227 52.7248 17.3477C52.8459 16.9727 53.0158 16.6504 53.2346 16.3809C53.4572 16.1113 53.7209 15.9043 54.0256 15.7598C54.3303 15.6152 54.6701 15.543 55.0451 15.543C55.3498 15.543 55.6252 15.5859 55.8713 15.6719C56.1174 15.7578 56.3283 15.8945 56.5041 16.082C56.6838 16.2695 56.8205 16.5156 56.9143 16.8203C57.0119 17.1211 57.0607 17.4922 57.0607 17.9336V22H55.5021V17.9219C55.5021 17.6328 55.4592 17.4043 55.3732 17.2363C55.2912 17.0684 55.1701 16.9492 55.01 16.8789C54.8537 16.8086 54.6604 16.7734 54.4299 16.7734C54.1916 16.7734 53.9826 16.8223 53.8029 16.9199C53.6271 17.0137 53.4787 17.1445 53.3576 17.3125C53.2404 17.4805 53.1506 17.6738 53.0881 17.8926C53.0256 18.1113 52.9943 18.3477 52.9943 18.6016ZM61.6782 20.6523V17.7285C61.6782 17.5137 61.6411 17.3281 61.5668 17.1719C61.4926 17.0156 61.3793 16.8945 61.227 16.8086C61.0746 16.7227 60.8813 16.6797 60.6469 16.6797C60.4399 16.6797 60.2582 16.7148 60.102 16.7852C59.9496 16.8555 59.8325 16.9551 59.7504 17.084C59.6684 17.209 59.6274 17.3535 59.6274 17.5176H58.0746C58.0746 17.2559 58.1371 17.0078 58.2621 16.7734C58.3871 16.5352 58.5649 16.3242 58.7954 16.1406C59.0297 15.9531 59.309 15.8066 59.6332 15.7012C59.9614 15.5957 60.3286 15.543 60.7348 15.543C61.2153 15.543 61.643 15.625 62.018 15.7891C62.3969 15.9492 62.6938 16.1914 62.9086 16.5156C63.1274 16.8398 63.2368 17.248 63.2368 17.7402V20.5059C63.2368 20.8223 63.2563 21.0938 63.2954 21.3203C63.3383 21.543 63.4008 21.7363 63.4829 21.9004V22H61.9067C61.8325 21.8398 61.7758 21.6367 61.7368 21.3906C61.6977 21.1406 61.6782 20.8945 61.6782 20.6523ZM61.895 18.1387L61.9067 19.0586H60.9282C60.686 19.0586 60.4731 19.084 60.2895 19.1348C60.1059 19.1816 59.9555 19.252 59.8383 19.3457C59.7211 19.4355 59.6332 19.5449 59.5746 19.6738C59.5161 19.7988 59.4868 19.9414 59.4868 20.1016C59.4868 20.2578 59.5219 20.3984 59.5922 20.5234C59.6664 20.6484 59.7719 20.748 59.9086 20.8223C60.0493 20.8926 60.2133 20.9277 60.4008 20.9277C60.6743 20.9277 60.9125 20.873 61.1157 20.7637C61.3188 20.6504 61.477 20.5137 61.5903 20.3535C61.7036 20.1934 61.7641 20.041 61.7719 19.8965L62.2172 20.5645C62.1625 20.7246 62.0805 20.8945 61.9711 21.0742C61.8618 21.2539 61.7211 21.4219 61.5493 21.5781C61.3774 21.7344 61.1704 21.8633 60.9282 21.9648C60.686 22.0664 60.4047 22.1172 60.0844 22.1172C59.6743 22.1172 59.3071 22.0352 58.9829 21.8711C58.6586 21.707 58.4028 21.4824 58.2153 21.1973C58.0278 20.9121 57.934 20.5879 57.934 20.2246C57.934 19.8887 57.9965 19.5918 58.1215 19.334C58.2465 19.0762 58.4321 18.8594 58.6782 18.6836C58.9243 18.5039 59.2289 18.3691 59.5922 18.2793C59.9594 18.1855 60.3793 18.1387 60.852 18.1387H61.895ZM65.9089 17.0137V22H64.362V15.6602H65.8151L65.9089 17.0137ZM65.6628 18.6016H65.2057C65.2096 18.1406 65.2721 17.7227 65.3932 17.3477C65.5143 16.9727 65.6843 16.6504 65.903 16.3809C66.1257 16.1113 66.3893 15.9043 66.694 15.7598C66.9987 15.6152 67.3386 15.543 67.7136 15.543C68.0182 15.543 68.2936 15.5859 68.5397 15.6719C68.7858 15.7578 68.9968 15.8945 69.1725 16.082C69.3522 16.2695 69.4889 16.5156 69.5827 16.8203C69.6804 17.1211 69.7292 17.4922 69.7292 17.9336V22H68.1706V17.9219C68.1706 17.6328 68.1276 17.4043 68.0417 17.2363C67.9596 17.0684 67.8386 16.9492 67.6784 16.8789C67.5221 16.8086 67.3288 16.7734 67.0983 16.7734C66.86 16.7734 66.6511 16.8223 66.4714 16.9199C66.2956 17.0137 66.1471 17.1445 66.0261 17.3125C65.9089 17.4805 65.819 17.6738 65.7565 17.8926C65.694 18.1113 65.6628 18.3477 65.6628 18.6016ZM73.456 20.8984C73.6747 20.8984 73.87 20.8555 74.0419 20.7695C74.2138 20.6836 74.3505 20.5625 74.4521 20.4062C74.5575 20.25 74.6142 20.0684 74.622 19.8613H76.081C76.0732 20.291 75.9521 20.6758 75.7177 21.0156C75.4833 21.3555 75.1708 21.625 74.7802 21.8242C74.3935 22.0195 73.9599 22.1172 73.4794 22.1172C72.9911 22.1172 72.5653 22.0352 72.2021 21.8711C71.8388 21.707 71.5361 21.4785 71.2939 21.1855C71.0556 20.8926 70.8759 20.5527 70.7548 20.166C70.6376 19.7793 70.579 19.3652 70.579 18.9238V18.7363C70.579 18.2949 70.6376 17.8809 70.7548 17.4941C70.8759 17.1074 71.0556 16.7676 71.2939 16.4746C71.5361 16.1816 71.8388 15.9531 72.2021 15.7891C72.5653 15.625 72.9892 15.543 73.4736 15.543C73.9853 15.543 74.4345 15.6426 74.8212 15.8418C75.2118 16.041 75.5165 16.3223 75.7353 16.6855C75.9579 17.0488 76.0732 17.4766 76.081 17.9688H74.622C74.6142 17.7422 74.5634 17.5391 74.4696 17.3594C74.3759 17.1797 74.2431 17.0352 74.0712 16.9258C73.8993 16.8164 73.6903 16.7617 73.4443 16.7617C73.1825 16.7617 72.9638 16.8164 72.788 16.9258C72.6161 17.0352 72.4814 17.1855 72.3837 17.377C72.29 17.5645 72.2236 17.7754 72.1845 18.0098C72.1493 18.2402 72.1318 18.4824 72.1318 18.7363V18.9238C72.1318 19.1816 72.1493 19.4277 72.1845 19.6621C72.2236 19.8965 72.29 20.1074 72.3837 20.2949C72.4814 20.4785 72.6161 20.625 72.788 20.7344C72.9638 20.8438 73.1864 20.8984 73.456 20.8984ZM79.7199 22.1172C79.2394 22.1172 78.8078 22.0391 78.425 21.8828C78.0421 21.7266 77.716 21.5098 77.4464 21.2324C77.1808 20.9512 76.9757 20.625 76.8312 20.2539C76.6906 19.8789 76.6203 19.4766 76.6203 19.0469V18.8125C76.6203 18.3242 76.6906 17.8809 76.8312 17.4824C76.9718 17.0801 77.1711 16.7344 77.4289 16.4453C77.6867 16.1562 77.9953 15.9336 78.3546 15.7773C78.714 15.6211 79.1105 15.543 79.5441 15.543C79.9933 15.543 80.3898 15.6191 80.7336 15.7715C81.0773 15.9199 81.3644 16.1309 81.5949 16.4043C81.8254 16.6777 81.9992 17.0059 82.1164 17.3887C82.2336 17.7676 82.2921 18.1875 82.2921 18.6484V19.2988H77.3234V18.2324H80.7687V18.1152C80.7609 17.8691 80.714 17.6445 80.6281 17.4414C80.5421 17.2344 80.4093 17.0703 80.2296 16.9492C80.05 16.8242 79.8175 16.7617 79.5324 16.7617C79.3019 16.7617 79.1007 16.8125 78.9289 16.9141C78.7609 17.0117 78.6203 17.1523 78.507 17.3359C78.3976 17.5156 78.3156 17.7305 78.2609 17.9805C78.2062 18.2305 78.1789 18.5078 78.1789 18.8125V19.0469C78.1789 19.3125 78.214 19.5586 78.2843 19.7852C78.3586 20.0117 78.466 20.209 78.6066 20.377C78.7511 20.541 78.923 20.6699 79.1222 20.7637C79.3254 20.8535 79.5558 20.8984 79.8136 20.8984C80.1379 20.8984 80.4308 20.8359 80.6925 20.7109C80.9582 20.582 81.1886 20.3926 81.3839 20.1426L82.1632 20.9512C82.0304 21.1465 81.8507 21.334 81.6242 21.5137C81.4015 21.6934 81.132 21.8398 80.8156 21.9531C80.4992 22.0625 80.1339 22.1172 79.7199 22.1172Z" fill="white"/>
<defs>
<linearGradient id="paint0_linear_1_80" x1="45.6875" y1="0" x2="45.6875" y2="35" gradientUnits="userSpaceOnUse">
<stop stop-color="white" stop-opacity="0.3"/>
<stop offset="1" stop-color="#4E4949"/>
</linearGradient>
</defs>
</svg>
