<svg width="81" height="35" viewBox="0 0 81 35" fill="none" xmlns="http://www.w3.org/2000/svg">
<rect width="33.4643" height="35" rx="10.5814" fill="url(#paint0_linear_1_71)" fill-opacity="0.2"/>
<path fill-rule="evenodd" clip-rule="evenodd" d="M17.4192 19.297C17.3166 19.0168 17.0474 18.8163 16.7321 18.8163C16.4169 18.8163 16.1476 19.0168 16.0451 19.297L16.7321 19.7877L17.4192 19.297ZM16.7321 22.7837C16.6042 22.8984 16.4592 22.9925 16.3023 23.0625L16.4291 23.5697H17.0352L17.162 23.0625C17.0051 22.9925 16.8601 22.8984 16.7321 22.7837ZM22.7996 12.3543C22.8266 12.3287 22.8536 12.303 22.8801 12.2765C24.0225 11.1342 24.254 9.51355 23.3972 8.65681C22.5405 7.80007 20.9199 8.03156 19.7776 9.17391C19.7486 9.20283 19.7205 9.23219 19.6928 9.2617C21.0389 9.91974 22.1355 11.0116 22.7996 12.3543ZM13.7715 9.2617C13.7437 9.232 13.7155 9.20273 13.6868 9.17391C12.5444 8.03153 10.9238 7.80004 10.0671 8.65678C9.21032 9.51351 9.44181 11.1341 10.5842 12.2765C10.6107 12.303 10.6377 12.3287 10.6647 12.3543C11.3287 11.0116 12.4254 9.91974 13.7715 9.2617ZM10.4424 24.8292C10.5338 24.9022 10.6269 24.9732 10.7215 25.0421C12.3338 26.2147 14.4685 26.8605 16.7322 26.8605C18.9958 26.8605 21.1305 26.2147 22.7428 25.0421C22.8374 24.9732 22.9305 24.9022 23.0219 24.8292C22.3281 22.4779 20.4626 20.6607 18.1429 20.128L17.2806 20.744V21.5586C17.2806 21.8611 17.5267 22.1071 17.8291 22.1071C18.1315 22.1071 18.3775 21.8611 18.3775 21.5586C18.3775 21.2557 18.6231 21.0102 18.926 21.0102C19.2289 21.0102 19.4745 21.2557 19.4745 21.5586C19.4745 22.3122 18.9651 22.9487 18.2726 23.1428L17.9955 24.2512C17.9658 24.3699 17.8974 24.4752 17.801 24.5505C17.7045 24.6257 17.5857 24.6666 17.4634 24.6666H16.0009C15.8786 24.6666 15.7597 24.6257 15.6633 24.5504C15.5669 24.4752 15.4984 24.3698 15.4688 24.2512L15.1917 23.1428C14.4992 22.9487 13.9898 22.3122 13.9898 21.5586C13.9898 21.2557 14.2354 21.0102 14.5383 21.0102C14.8412 21.0102 15.0868 21.2557 15.0868 21.5586C15.0868 21.8611 15.3328 22.1071 15.6352 22.1071C15.9376 22.1071 16.1837 21.8611 16.1837 21.5586V20.744L15.3214 20.1281C13.0018 20.6607 11.1362 22.4779 10.4424 24.8292ZM14.9639 19.0833C13.5848 19.4198 12.3197 20.1496 11.2944 21.2195C10.5242 22.0234 9.9385 22.968 9.5594 23.9974C8.63557 22.9608 8.13953 21.7428 8.13953 20.4617C8.13953 18.5998 9.20118 16.8589 11.0647 15.645V15.3427C11.0647 12.2177 13.6071 9.67524 16.7321 9.67524C19.8572 9.67524 22.3996 12.2177 22.3996 15.3427V15.645C24.2631 16.8589 25.3248 18.5998 25.3248 20.4617C25.3248 21.7428 24.8287 22.9608 23.9049 23.9974C23.5258 22.968 22.9401 22.0234 22.1698 21.2195C21.1445 20.1496 19.8795 19.4198 18.5004 19.0833C18.2944 18.2994 17.5799 17.7194 16.7321 17.7194C15.8844 17.7194 15.1699 18.2994 14.9639 19.0833ZM19.2916 14.7942C18.9888 14.7942 18.7432 15.0398 18.7432 15.3427V16.4396C18.7432 16.7425 18.9888 16.9881 19.2916 16.9881C19.5945 16.9881 19.8401 16.7425 19.8401 16.4396V15.3427C19.8401 15.0398 19.5945 14.7942 19.2916 14.7942ZM14.1726 14.7942C13.8697 14.7942 13.6242 15.0398 13.6242 15.3427V16.4396C13.6242 16.7425 13.8697 16.9881 14.1726 16.9881C14.4755 16.9881 14.7211 16.7425 14.7211 16.4396V15.3427C14.7211 15.0398 14.4755 14.7942 14.1726 14.7942Z" fill="white"/>
<path d="M46.0092 22.1172C45.5287 22.1172 45.0971 22.0391 44.7143 21.8828C44.3315 21.7266 44.0053 21.5098 43.7358 21.2324C43.4702 20.9512 43.2651 20.625 43.1205 20.2539C42.9799 19.8789 42.9096 19.4766 42.9096 19.0469V18.8125C42.9096 18.3242 42.9799 17.8809 43.1205 17.4824C43.2612 17.0801 43.4604 16.7344 43.7182 16.4453C43.976 16.1562 44.2846 15.9336 44.644 15.7773C45.0034 15.6211 45.3998 15.543 45.8334 15.543C46.2827 15.543 46.6791 15.6191 47.0229 15.7715C47.3666 15.9199 47.6537 16.1309 47.8842 16.4043C48.1147 16.6777 48.2885 17.0059 48.4057 17.3887C48.5229 17.7676 48.5815 18.1875 48.5815 18.6484V19.2988H43.6127V18.2324H47.058V18.1152C47.0502 17.8691 47.0034 17.6445 46.9174 17.4414C46.8315 17.2344 46.6987 17.0703 46.519 16.9492C46.3393 16.8242 46.1069 16.7617 45.8217 16.7617C45.5912 16.7617 45.3901 16.8125 45.2182 16.9141C45.0502 17.0117 44.9096 17.1523 44.7963 17.3359C44.687 17.5156 44.6049 17.7305 44.5502 17.9805C44.4955 18.2305 44.4682 18.5078 44.4682 18.8125V19.0469C44.4682 19.3125 44.5034 19.5586 44.5737 19.7852C44.6479 20.0117 44.7553 20.209 44.8959 20.377C45.0405 20.541 45.2123 20.6699 45.4116 20.7637C45.6147 20.8535 45.8452 20.8984 46.103 20.8984C46.4272 20.8984 46.7202 20.8359 46.9819 20.7109C47.2475 20.582 47.478 20.3926 47.6733 20.1426L48.4526 20.9512C48.3198 21.1465 48.1401 21.334 47.9135 21.5137C47.6909 21.6934 47.4213 21.8398 47.1049 21.9531C46.7885 22.0625 46.4233 22.1172 46.0092 22.1172ZM51.9802 20.8984C52.1989 20.8984 52.3942 20.8555 52.5661 20.7695C52.738 20.6836 52.8747 20.5625 52.9762 20.4062C53.0817 20.25 53.1384 20.0684 53.1462 19.8613H54.6052C54.5973 20.291 54.4762 20.6758 54.2419 21.0156C54.0075 21.3555 53.695 21.625 53.3044 21.8242C52.9177 22.0195 52.4841 22.1172 52.0036 22.1172C51.5153 22.1172 51.0895 22.0352 50.7262 21.8711C50.363 21.707 50.0602 21.4785 49.818 21.1855C49.5798 20.8926 49.4001 20.5527 49.279 20.166C49.1618 19.7793 49.1032 19.3652 49.1032 18.9238V18.7363C49.1032 18.2949 49.1618 17.8809 49.279 17.4941C49.4001 17.1074 49.5798 16.7676 49.818 16.4746C50.0602 16.1816 50.363 15.9531 50.7262 15.7891C51.0895 15.625 51.5134 15.543 51.9977 15.543C52.5095 15.543 52.9587 15.6426 53.3454 15.8418C53.736 16.041 54.0407 16.3223 54.2595 16.6855C54.4821 17.0488 54.5973 17.4766 54.6052 17.9688H53.1462C53.1384 17.7422 53.0876 17.5391 52.9938 17.3594C52.9001 17.1797 52.7673 17.0352 52.5954 16.9258C52.4235 16.8164 52.2145 16.7617 51.9684 16.7617C51.7067 16.7617 51.488 16.8164 51.3122 16.9258C51.1403 17.0352 51.0055 17.1855 50.9079 17.377C50.8141 17.5645 50.7477 17.7754 50.7087 18.0098C50.6735 18.2402 50.6559 18.4824 50.6559 18.7363V18.9238C50.6559 19.1816 50.6735 19.4277 50.7087 19.6621C50.7477 19.8965 50.8141 20.1074 50.9079 20.2949C51.0055 20.4785 51.1403 20.625 51.3122 20.7344C51.488 20.8438 51.7106 20.8984 51.9802 20.8984ZM55.121 18.8945V18.7715C55.121 18.3066 55.1874 17.8789 55.3202 17.4883C55.453 17.0938 55.6464 16.752 55.9003 16.4629C56.1542 16.1738 56.4648 15.9492 56.832 15.7891C57.1991 15.625 57.6171 15.543 58.0859 15.543C58.5624 15.543 58.9843 15.625 59.3515 15.7891C59.7226 15.9492 60.0351 16.1738 60.289 16.4629C60.5429 16.752 60.7362 17.0938 60.8691 17.4883C61.0019 17.8789 61.0683 18.3066 61.0683 18.7715V18.8945C61.0683 19.3555 61.0019 19.7832 60.8691 20.1777C60.7362 20.5684 60.5429 20.9102 60.289 21.2031C60.0351 21.4922 59.7245 21.7168 59.3573 21.877C58.9902 22.0371 58.5702 22.1172 58.0976 22.1172C57.6288 22.1172 57.2089 22.0371 56.8378 21.877C56.4667 21.7168 56.1542 21.4922 55.9003 21.2031C55.6464 20.9102 55.453 20.5684 55.3202 20.1777C55.1874 19.7832 55.121 19.3555 55.121 18.8945ZM56.6679 18.7715V18.8945C56.6679 19.1719 56.6952 19.4316 56.7499 19.6738C56.8046 19.916 56.8886 20.1289 57.0019 20.3125C57.1152 20.4961 57.2616 20.6406 57.4413 20.7461C57.6249 20.8477 57.8437 20.8984 58.0976 20.8984C58.3476 20.8984 58.5624 20.8477 58.7421 20.7461C58.9218 20.6406 59.0683 20.4961 59.1816 20.3125C59.2987 20.1289 59.3847 19.916 59.4394 19.6738C59.4941 19.4316 59.5214 19.1719 59.5214 18.8945V18.7715C59.5214 18.498 59.4941 18.2422 59.4394 18.0039C59.3847 17.7617 59.2987 17.5488 59.1816 17.3652C59.0683 17.1777 58.9198 17.0312 58.7362 16.9258C58.5566 16.8164 58.3398 16.7617 58.0859 16.7617C57.8359 16.7617 57.621 16.8164 57.4413 16.9258C57.2616 17.0312 57.1152 17.1777 57.0019 17.3652C56.8886 17.5488 56.8046 17.7617 56.7499 18.0039C56.6952 18.2422 56.6679 18.498 56.6679 18.7715ZM63.4709 17.0137V22H61.924V15.6602H63.3771L63.4709 17.0137ZM63.2248 18.6016H62.7677C62.7716 18.1406 62.8341 17.7227 62.9552 17.3477C63.0763 16.9727 63.2462 16.6504 63.465 16.3809C63.6877 16.1113 63.9513 15.9043 64.256 15.7598C64.5607 15.6152 64.9005 15.543 65.2755 15.543C65.5802 15.543 65.8556 15.5859 66.1017 15.6719C66.3478 15.7578 66.5587 15.8945 66.7345 16.082C66.9142 16.2695 67.0509 16.5156 67.1447 16.8203C67.2423 17.1211 67.2912 17.4922 67.2912 17.9336V22H65.7326V17.9219C65.7326 17.6328 65.6896 17.4043 65.6037 17.2363C65.5216 17.0684 65.4005 16.9492 65.2404 16.8789C65.0841 16.8086 64.8908 16.7734 64.6603 16.7734C64.422 16.7734 64.213 16.8223 64.0334 16.9199C63.8576 17.0137 63.7091 17.1445 63.588 17.3125C63.4709 17.4805 63.381 17.6738 63.3185 17.8926C63.256 18.1113 63.2248 18.3477 63.2248 18.6016ZM71.2641 22.1172C70.7836 22.1172 70.352 22.0391 69.9691 21.8828C69.5863 21.7266 69.2602 21.5098 68.9906 21.2324C68.725 20.9512 68.5199 20.625 68.3754 20.2539C68.2348 19.8789 68.1645 19.4766 68.1645 19.0469V18.8125C68.1645 18.3242 68.2348 17.8809 68.3754 17.4824C68.516 17.0801 68.7152 16.7344 68.973 16.4453C69.2309 16.1562 69.5395 15.9336 69.8988 15.7773C70.2582 15.6211 70.6547 15.543 71.0883 15.543C71.5375 15.543 71.934 15.6191 72.2777 15.7715C72.6215 15.9199 72.9086 16.1309 73.1391 16.4043C73.3695 16.6777 73.5434 17.0059 73.6605 17.3887C73.7777 17.7676 73.8363 18.1875 73.8363 18.6484V19.2988H68.8676V18.2324H72.3129V18.1152C72.3051 17.8691 72.2582 17.6445 72.1723 17.4414C72.0863 17.2344 71.9535 17.0703 71.7738 16.9492C71.5941 16.8242 71.3617 16.7617 71.0766 16.7617C70.8461 16.7617 70.6449 16.8125 70.473 16.9141C70.3051 17.0117 70.1645 17.1523 70.0512 17.3359C69.9418 17.5156 69.8598 17.7305 69.8051 17.9805C69.7504 18.2305 69.723 18.5078 69.723 18.8125V19.0469C69.723 19.3125 69.7582 19.5586 69.8285 19.7852C69.9027 20.0117 70.0102 20.209 70.1508 20.377C70.2953 20.541 70.4672 20.6699 70.6664 20.7637C70.8695 20.8535 71.1 20.8984 71.3578 20.8984C71.682 20.8984 71.975 20.8359 72.2367 20.7109C72.5023 20.582 72.7328 20.3926 72.9281 20.1426L73.7074 20.9512C73.5746 21.1465 73.3949 21.334 73.1684 21.5137C72.9457 21.6934 72.6762 21.8398 72.3598 21.9531C72.0434 22.0625 71.6781 22.1172 71.2641 22.1172ZM76.6549 20.8281L78.1315 15.6602H79.7487L77.5748 22H76.5905L76.6549 20.8281ZM75.5768 15.6602L77.0709 20.8398L77.1237 22H76.1334L73.9537 15.6602H75.5768Z" fill="white"/>
<defs>
<linearGradient id="paint0_linear_1_71" x1="16.7321" y1="0" x2="16.7321" y2="35" gradientUnits="userSpaceOnUse">
<stop stop-color="white" stop-opacity="0.3"/>
<stop offset="1" stop-color="#4E4949"/>
</linearGradient>
</defs>
</svg>
